# xmcd CD database file
#
# Track frame offsets:
#	150
#	23250
#	40625
#	55665
#	104372
#	120897
#	152260
#	169907
#	198530
#	224070
#	244492
#
# Disc length: 3372 seconds
#
# Revision: 0
# Processed by: cddbd v1.5.1PL0 Copyright (c) Steve Scherf et al.
# Submitted via: CDex 1.51
#
DISCID=880d2a0b
DTITLE=George Melley - Son Of Nuts
DYEAR=1973
DGENRE=Jazz
TTITLE0=Old Fashioned Love
TTITLE1=I Need A Little Sugar In My Bowl
TTITLE2=Good Time George
TTITLE3=Wynin' Boy
TTITLE4=The Joint Is Jumping
TTITLE5=Buddy Bolden's Blues
TTITLE6=Heebie Jeebies
TTITLE7=Kitchen Man
TTITLE8=Roll 'Em Pete
TTITLE9=Young Woman's Blues
TTITLE10=Show Me The Way To Go Home
EXTD=YEAR: 1973
EXTT0=
EXTT1=
EXTT2=
EXTT3=
EXTT4=
EXTT5=
EXTT6=
EXTT7=
EXTT8=
EXTT9=
EXTT10=
PLAYORDER=
